<svg width="22" height="22" viewBox="0 0 22 22" fill="none" xmlns="http://www.w3.org/2000/svg">
<path fill-rule="evenodd" clip-rule="evenodd" d="M11.5511 0C9.89425 0 8.5511 1.34314 8.5511 3V9.50445H3.41421L5.41711 7.50155C5.80763 7.11103 5.80763 6.47786 5.41711 6.08734C5.02659 5.69681 4.39342 5.69681 4.0029 6.08734L0.292894 9.79734C-0.0976312 10.1879 -0.0976312 10.821 0.292894 11.2116L4.0029 14.9216C4.39342 15.3121 5.02659 15.3121 5.41711 14.9216C5.80763 14.531 5.80763 13.8979 5.41711 13.5073L3.41421 11.5044H8.5511V18.0089C8.5511 19.6657 9.89425 21.0089 11.5511 21.0089H18.983C20.6398 21.0089 21.983 19.6657 21.983 18.0089V3C21.983 1.34314 20.6398 0 18.983 0H11.5511ZM10.5511 11.5044V18.0089C10.5511 18.5612 10.9988 19.0089 11.5511 19.0089H18.983C19.5353 19.0089 19.983 18.5612 19.983 18.0089V3C19.983 2.44772 19.5352 2 18.983 2H11.5511C10.9988 2 10.5511 2.44771 10.5511 3V9.50445H15.267C15.8193 9.50445 16.267 9.95216 16.267 10.5044C16.267 11.0567 15.8193 11.5044 15.267 11.5044H10.5511Z" fill="black"/>
</svg>
