<svg xmlns="http://www.w3.org/2000/svg" xmlns:xlink="http://www.w3.org/1999/xlink" version="1.1" width="256" height="256" viewBox="0 0 256 256" xml:space="preserve">

<defs>
</defs>
<g style="stroke: none; stroke-width: 0; stroke-dasharray: none; stroke-linecap: butt; stroke-linejoin: miter; stroke-miterlimit: 10; fill: none; fill-rule: nonzero; opacity: 1;" transform="translate(1.4065934065934016 1.4065934065934016) scale(2.81 2.81)" >
	<path d="M 15.667 50.837 V 37.452 c 0 -5.899 4.782 -10.681 10.681 -10.681 h 7.971 C 40.218 26.771 45 31.553 45 37.452 v 13.385" style="stroke: none; stroke-width: 1; stroke-dasharray: none; stroke-linecap: butt; stroke-linejoin: miter; stroke-miterlimit: 10; fill: rgb(194,173,255); fill-rule: nonzero; opacity: 1;" transform=" matrix(1 0 0 1 0 0) " stroke-linecap="round" />
	<path d="M 45 50.837 V 37.452 c 0 -5.899 4.782 -10.681 10.681 -10.681 h 7.971 c 5.899 0 10.681 4.782 10.681 10.681 v 13.385" style="stroke: none; stroke-width: 1; stroke-dasharray: none; stroke-linecap: butt; stroke-linejoin: miter; stroke-miterlimit: 10; fill: rgb(189,246,147); fill-rule: nonzero; opacity: 1;" transform=" matrix(1 0 0 1 0 0) " stroke-linecap="round" />
	<path d="M 1 84.421 V 71.036 c 0 -5.899 4.782 -10.681 10.681 -10.681 h 7.971 c 5.899 0 10.681 4.782 10.681 10.681 v 13.385" style="stroke: none; stroke-width: 1; stroke-dasharray: none; stroke-linecap: butt; stroke-linejoin: miter; stroke-miterlimit: 10; fill: rgb(128,170,255); fill-rule: nonzero; opacity: 1;" transform=" matrix(1 0 0 1 0 0) " stroke-linecap="round" />
	<path d="M 15.667 60.355 L 15.667 60.355 c -4.49 0 -8.13 -3.64 -8.13 -8.13 v -4.931 c 0 -4.49 3.64 -8.13 8.13 -8.13 h 0 c 4.49 0 8.13 3.64 8.13 8.13 v 4.931 C 23.797 56.715 20.157 60.355 15.667 60.355 z" style="stroke: none; stroke-width: 1; stroke-dasharray: none; stroke-linecap: butt; stroke-linejoin: miter; stroke-miterlimit: 10; fill: rgb(254,229,198); fill-rule: nonzero; opacity: 1;" transform=" matrix(1 0 0 1 0 0) " stroke-linecap="round" />
	<path d="M 30.333 84.421 V 71.036 c 0 -5.899 4.782 -10.681 10.681 -10.681 h 7.971 c 5.899 0 10.681 4.782 10.681 10.681 v 13.385" style="stroke: none; stroke-width: 1; stroke-dasharray: none; stroke-linecap: butt; stroke-linejoin: miter; stroke-miterlimit: 10; fill: rgb(254,79,96); fill-rule: nonzero; opacity: 1;" transform=" matrix(1 0 0 1 0 0) " stroke-linecap="round" />
	<path d="M 45 60.355 L 45 60.355 c -4.49 0 -8.13 -3.64 -8.13 -8.13 v -4.931 c 0 -4.49 3.64 -8.13 8.13 -8.13 h 0 c 4.49 0 8.13 3.64 8.13 8.13 v 4.931 C 53.13 56.715 49.49 60.355 45 60.355 z" style="stroke: none; stroke-width: 1; stroke-dasharray: none; stroke-linecap: butt; stroke-linejoin: miter; stroke-miterlimit: 10; fill: rgb(254,229,198); fill-rule: nonzero; opacity: 1;" transform=" matrix(1 0 0 1 0 0) " stroke-linecap="round" />
	<path d="M 59.667 84.421 V 71.036 c 0 -5.899 4.782 -10.681 10.681 -10.681 h 7.971 C 84.218 60.355 89 65.137 89 71.036 v 13.385" style="stroke: none; stroke-width: 1; stroke-dasharray: none; stroke-linecap: butt; stroke-linejoin: miter; stroke-miterlimit: 10; fill: rgb(255,231,115); fill-rule: nonzero; opacity: 1;" transform=" matrix(1 0 0 1 0 0) " stroke-linecap="round" />
	<path d="M 74.333 60.355 L 74.333 60.355 c -4.49 0 -8.13 -3.64 -8.13 -8.13 v -4.931 c 0 -4.49 3.64 -8.13 8.13 -8.13 h 0 c 4.49 0 8.13 3.64 8.13 8.13 v 4.931 C 82.464 56.715 78.824 60.355 74.333 60.355 z" style="stroke: none; stroke-width: 1; stroke-dasharray: none; stroke-linecap: butt; stroke-linejoin: miter; stroke-miterlimit: 10; fill: rgb(254,229,198); fill-rule: nonzero; opacity: 1;" transform=" matrix(1 0 0 1 0 0) " stroke-linecap="round" />
	<path d="M 30.333 26.771 L 30.333 26.771 c -4.49 0 -8.13 -3.64 -8.13 -8.13 v -4.931 c 0 -4.49 3.64 -8.13 8.13 -8.13 h 0 c 4.49 0 8.13 3.64 8.13 8.13 v 4.931 C 38.464 23.13 34.824 26.771 30.333 26.771 z" style="stroke: none; stroke-width: 1; stroke-dasharray: none; stroke-linecap: butt; stroke-linejoin: miter; stroke-miterlimit: 10; fill: rgb(254,229,198); fill-rule: nonzero; opacity: 1;" transform=" matrix(1 0 0 1 0 0) " stroke-linecap="round" />
	<path d="M 59.667 26.771 L 59.667 26.771 c -4.49 0 -8.13 -3.64 -8.13 -8.13 v -4.931 c 0 -4.49 3.64 -8.13 8.13 -8.13 h 0 c 4.49 0 8.13 3.64 8.13 8.13 v 4.931 C 67.797 23.13 64.157 26.771 59.667 26.771 z" style="stroke: none; stroke-width: 1; stroke-dasharray: none; stroke-linecap: butt; stroke-linejoin: miter; stroke-miterlimit: 10; fill: rgb(254,229,198); fill-rule: nonzero; opacity: 1;" transform=" matrix(1 0 0 1 0 0) " stroke-linecap="round" />
	<path d="M 30.333 85.421 c -0.552 0 -1 -0.447 -1 -1 V 71.036 c 0 -5.339 -4.343 -9.682 -9.681 -9.682 h -7.971 C 6.343 61.354 2 65.697 2 71.036 v 13.385 c 0 0.553 -0.448 1 -1 1 s -1 -0.447 -1 -1 V 71.036 c 0 -6.441 5.24 -11.682 11.681 -11.682 h 7.971 c 6.441 0 11.681 5.24 11.681 11.682 v 13.385 C 31.333 84.974 30.886 85.421 30.333 85.421 z" style="stroke: none; stroke-width: 1; stroke-dasharray: none; stroke-linecap: butt; stroke-linejoin: miter; stroke-miterlimit: 10; fill: rgb(0,0,0); fill-rule: nonzero; opacity: 1;" transform=" matrix(1 0 0 1 0 0) " stroke-linecap="round" />
	<path d="M 15.667 61.354 c -5.035 0 -9.13 -4.096 -9.13 -9.13 v -4.931 c 0 -5.035 4.096 -9.131 9.13 -9.131 s 9.13 4.096 9.13 9.131 v 4.931 C 24.797 57.259 20.701 61.354 15.667 61.354 z M 15.667 40.163 c -3.932 0 -7.13 3.199 -7.13 7.131 v 4.931 c 0 3.932 3.199 7.13 7.13 7.13 s 7.13 -3.198 7.13 -7.13 v -4.931 C 22.797 43.362 19.598 40.163 15.667 40.163 z" style="stroke: none; stroke-width: 1; stroke-dasharray: none; stroke-linecap: butt; stroke-linejoin: miter; stroke-miterlimit: 10; fill: rgb(0,0,0); fill-rule: nonzero; opacity: 1;" transform=" matrix(1 0 0 1 0 0) " stroke-linecap="round" />
	<path d="M 59.667 85.421 c -0.553 0 -1 -0.447 -1 -1 V 71.036 c 0 -5.339 -4.343 -9.682 -9.682 -9.682 h -7.971 c -5.338 0 -9.681 4.343 -9.681 9.682 v 13.385 c 0 0.553 -0.448 1 -1 1 s -1 -0.447 -1 -1 V 71.036 c 0 -6.441 5.24 -11.682 11.681 -11.682 h 7.971 c 6.441 0 11.682 5.24 11.682 11.682 v 13.385 C 60.667 84.974 60.22 85.421 59.667 85.421 z" style="stroke: none; stroke-width: 1; stroke-dasharray: none; stroke-linecap: butt; stroke-linejoin: miter; stroke-miterlimit: 10; fill: rgb(0,0,0); fill-rule: nonzero; opacity: 1;" transform=" matrix(1 0 0 1 0 0) " stroke-linecap="round" />
	<path d="M 45 61.354 c -5.035 0 -9.13 -4.096 -9.13 -9.13 v -4.931 c 0 -5.035 4.096 -9.131 9.13 -9.131 c 5.035 0 9.131 4.096 9.131 9.131 v 4.931 C 54.131 57.259 50.035 61.354 45 61.354 z M 45 40.163 c -3.932 0 -7.13 3.199 -7.13 7.131 v 4.931 c 0 3.932 3.199 7.13 7.13 7.13 s 7.131 -3.198 7.131 -7.13 v -4.931 C 52.131 43.362 48.932 40.163 45 40.163 z" style="stroke: none; stroke-width: 1; stroke-dasharray: none; stroke-linecap: butt; stroke-linejoin: miter; stroke-miterlimit: 10; fill: rgb(0,0,0); fill-rule: nonzero; opacity: 1;" transform=" matrix(1 0 0 1 0 0) " stroke-linecap="round" />
	<path d="M 89 85.421 c -0.553 0 -1 -0.447 -1 -1 V 71.036 c 0 -5.339 -4.343 -9.682 -9.682 -9.682 h -7.971 c -5.338 0 -9.681 4.343 -9.681 9.682 v 13.385 c 0 0.553 -0.447 1 -1 1 s -1 -0.447 -1 -1 V 71.036 c 0 -6.441 5.24 -11.682 11.681 -11.682 h 7.971 C 84.76 59.354 90 64.595 90 71.036 v 13.385 C 90 84.974 89.553 85.421 89 85.421 z" style="stroke: none; stroke-width: 1; stroke-dasharray: none; stroke-linecap: butt; stroke-linejoin: miter; stroke-miterlimit: 10; fill: rgb(0,0,0); fill-rule: nonzero; opacity: 1;" transform=" matrix(1 0 0 1 0 0) " stroke-linecap="round" />
	<path d="M 74.333 61.354 c -5.034 0 -9.13 -4.096 -9.13 -9.13 v -4.931 c 0 -5.035 4.096 -9.131 9.13 -9.131 c 5.035 0 9.131 4.096 9.131 9.131 v 4.931 C 83.464 57.259 79.368 61.354 74.333 61.354 z M 74.333 40.163 c -3.932 0 -7.13 3.199 -7.13 7.131 v 4.931 c 0 3.932 3.198 7.13 7.13 7.13 s 7.131 -3.198 7.131 -7.13 v -4.931 C 81.464 43.362 78.265 40.163 74.333 40.163 z" style="stroke: none; stroke-width: 1; stroke-dasharray: none; stroke-linecap: butt; stroke-linejoin: miter; stroke-miterlimit: 10; fill: rgb(0,0,0); fill-rule: nonzero; opacity: 1;" transform=" matrix(1 0 0 1 0 0) " stroke-linecap="round" />
	<path d="M 15.667 40.163 c -0.552 0 -1 -0.448 -1 -1 v -1.711 c 0 -6.441 5.24 -11.681 11.681 -11.681 h 7.971 C 40.76 25.771 46 31.011 46 37.452 c 0 0.552 -0.448 1 -1 1 s -1 -0.448 -1 -1 c 0 -5.338 -4.343 -9.681 -9.681 -9.681 h -7.971 c -5.338 0 -9.681 4.343 -9.681 9.681 v 1.711 C 16.667 39.715 16.219 40.163 15.667 40.163 z" style="stroke: none; stroke-width: 1; stroke-dasharray: none; stroke-linecap: butt; stroke-linejoin: miter; stroke-miterlimit: 10; fill: rgb(0,0,0); fill-rule: nonzero; opacity: 1;" transform=" matrix(1 0 0 1 0 0) " stroke-linecap="round" />
	<path d="M 74.333 40.163 c -0.553 0 -1 -0.448 -1 -1 v -1.711 c 0 -5.338 -4.343 -9.681 -9.681 -9.681 h -7.971 c -5.339 0 -9.682 4.343 -9.682 9.681 v 1.711 c 0 0.552 -0.448 1 -1 1 s -1 -0.448 -1 -1 v -1.711 c 0 -6.441 5.24 -11.681 11.682 -11.681 h 7.971 c 6.44 0 11.681 5.24 11.681 11.681 v 1.711 C 75.333 39.715 74.886 40.163 74.333 40.163 z" style="stroke: none; stroke-width: 1; stroke-dasharray: none; stroke-linecap: butt; stroke-linejoin: miter; stroke-miterlimit: 10; fill: rgb(0,0,0); fill-rule: nonzero; opacity: 1;" transform=" matrix(1 0 0 1 0 0) " stroke-linecap="round" />
	<path d="M 30.333 27.771 c -5.035 0 -9.13 -4.096 -9.13 -9.13 v -4.931 c 0 -5.035 4.096 -9.13 9.13 -9.13 s 9.13 4.096 9.13 9.13 v 4.931 C 39.464 23.675 35.368 27.771 30.333 27.771 z M 30.333 6.579 c -3.932 0 -7.13 3.199 -7.13 7.13 v 4.931 c 0 3.932 3.199 7.13 7.13 7.13 s 7.13 -3.199 7.13 -7.13 v -4.931 C 37.464 9.778 34.265 6.579 30.333 6.579 z" style="stroke: none; stroke-width: 1; stroke-dasharray: none; stroke-linecap: butt; stroke-linejoin: miter; stroke-miterlimit: 10; fill: rgb(0,0,0); fill-rule: nonzero; opacity: 1;" transform=" matrix(1 0 0 1 0 0) " stroke-linecap="round" />
	<path d="M 59.667 27.771 c -5.035 0 -9.131 -4.096 -9.131 -9.13 v -4.931 c 0 -5.035 4.096 -9.13 9.131 -9.13 c 5.034 0 9.13 4.096 9.13 9.13 v 4.931 C 68.797 23.675 64.701 27.771 59.667 27.771 z M 59.667 6.579 c -3.932 0 -7.131 3.199 -7.131 7.13 v 4.931 c 0 3.932 3.199 7.13 7.131 7.13 s 7.13 -3.199 7.13 -7.13 v -4.931 C 66.797 9.778 63.599 6.579 59.667 6.579 z" style="stroke: none; stroke-width: 1; stroke-dasharray: none; stroke-linecap: butt; stroke-linejoin: miter; stroke-miterlimit: 10; fill: rgb(0,0,0); fill-rule: nonzero; opacity: 1;" transform=" matrix(1 0 0 1 0 0) " stroke-linecap="round" />
</g>
</svg>