<svg width="33" height="32" viewBox="0 0 33 32" fill="none" xmlns="http://www.w3.org/2000/svg">
<path fill-rule="evenodd" clip-rule="evenodd" d="M15.9906 2H17.0094C24.7362 2 31 8.26379 31 15.9906C31 23.7173 24.7362 29.9811 17.0094 29.9811H15.9906C8.26379 29.9811 2 23.7173 2 15.9906C2 8.26379 8.26379 2 15.9906 2ZM0 15.9906C0 7.15922 7.15922 0 15.9906 0H17.0094C25.8408 0 33 7.15922 33 15.9906C33 24.8219 25.8408 31.9811 17.0094 31.9811H15.9906C7.15922 31.9811 0 24.8219 0 15.9906ZM16.6284 21.8284C16.0761 21.8284 15.6284 21.3807 15.6284 20.8284V18H13C12.4477 18 12 17.5523 12 17C12 16.4478 12.4477 16 13 16H15.6284V13.2284C15.6284 12.6761 16.0761 12.2284 16.6284 12.2284C17.1807 12.2284 17.6284 12.6761 17.6284 13.2284V16H20.6C21.1523 16 21.6 16.4478 21.6 17C21.6 17.5523 21.1523 18 20.6 18H17.6284V20.8284C17.6284 21.3807 17.1807 21.8284 16.6284 21.8284Z" fill="white"/>
</svg>
